PathFileType	4	(X/Y/Z)	35_2_60_p1_0-410_filt_butterworth.trc
DataRate	CameraRate	NumFrames	NumMarkers	Units	OrigDataRate	OrigDataStartFrame	OrigNumFrames
59.0	59.0	6	27	m	59.0	358	410
Frame#	Time	RHip			RKnee			RAnkle			RBigToe			RSmallToe			RHeel			LHip			LKnee			LAnkle			LBigToe			LSmallToe			LHeel			Neck			Head			Nose			RShoulder			RElbow			RWrist			RThumb			RIndex			RPinky			LShoulder			LElbow			LWrist			LThumb			LIndex			LPinky			
		X1	Y1	Z1	X2	Y2	Z2	X3	Y3	Z3	X4	Y4	Z4	X5	Y5	Z5	X6	Y6	Z6	X7	Y7	Z7	X8	Y8	Z8	X9	Y9	Z9	X10	Y10	Z10	X11	Y11	Z11	X12	Y12	Z12	X13	Y13	Z13	X14	Y14	Z14	X15	Y15	Z15	X16	Y16	Z16	X17	Y17	Z17	X18	Y18	Z18	X19	Y19	Z19	X20	Y20	Z20	X21	Y21	Z21	X22	Y22	Z22	X23	Y23	Z23	X24	Y24	Z24	X25	Y25	Z25	X26	Y26	Z26	X27	Y27	Z27	
358	6.067796610169491	0.39304776705733413	0.39079922853206756	0.9426294839665528	0.3832129085101551	-0.06016557769371578	0.9846360920294812	0.3914142767177447	-0.5077593515464213	1.0313693713328382	0.3477344548265139	-0.5105936647610798	0.825302885197163	0.4183775365848007	-0.5028441259966566	0.835280801927503	0.36170804826099856	-0.5849186380232646	1.1266591719682757	0.17302250622788515	0.38226356007986656	0.9566333578134498	0.190152683867858	-0.07176208072090229	1.0167592197085358	0.19901461987244057	-0.49818882537426135	1.0295500061726985	0.2015332669514651	-0.4935981239235271	0.8328013819851602	0.13966144019668403	-0.5093453213273842	0.8758319123557793	0.206954043688527	-0.5788921629524533	1.0902715387882036	0.2756768125947737	0.9396612303164422	0.9551622462117318	0.2543391997638097	1.184575831873953	0.9494035654772864	0.25791579184156704	1.0640901545657746	0.8489388365720465	0.42785564464115733	0.8618640982020398	0.9266868865466393	0.4651723656238682	0.6095509049007788	0.820358926786189	0.32548172521313845	0.46186719263150955	0.6669301922103583	0.25137818526873784	0.39169397368472747	0.6477036540455952	0.249620541147214	0.37180207688519173	0.6495009283909166	0.25996564075769873	0.37873870273890037	0.6340328407100502	0.11792896445594628	0.8541372084698905	0.9457945854571794	0.07267219112273296	0.621369610945014	0.8482676961294782	0.20588534817162601	0.4967825496517251	0.6520784383631572	0.30188053393453507	0.45406003940363937	0.6280046467780556	0.2965954543673624	0.4379415310844418	0.5807673149432294	0.2599968635942912	0.4159023386745765	0.5932507852709537	
359	6.084745762711864	0.3936698962975945	0.3900975635564456	0.94126242244977	0.3823492210594056	-0.05996639780973989	0.983002254107813	0.39056163538338623	-0.5071387968841155	1.0298661279958898	0.3470814422074721	-0.5092517334736881	0.8234167232616945	0.4174958375205359	-0.5034473151201138	0.8357460772270597	0.36080764680716715	-0.5852091193299678	1.1265034189488718	0.17318599815884586	0.38067073406026647	0.9542934323848765	0.18997213964101745	-0.07132626255526298	1.0148224229534553	0.1990033847945586	-0.4984713953884937	1.0296154050589854	0.2015448505771296	-0.4979371535456346	0.8392983874483709	0.1403248908940412	-0.5114722007489938	0.8790907688710069	0.20684510848451973	-0.5796476975715141	1.0904712085296004	0.27568454898825046	0.9397702167027866	0.955059378482453	0.2562959014772359	1.1852690741001777	0.9496323714594386	0.25863452098947576	1.0644156565782004	0.8490395041912939	0.4285841374550792	0.8618574383237037	0.9268012501604848	0.46497165562885223	0.6101175102988732	0.8205218659303531	0.3189239721845964	0.4674604277396327	0.6802432171432812	0.24493305540997906	0.391521828903424	0.6663011084229753	0.23975048726613174	0.3727499300041724	0.6699983279322026	0.2500401712858721	0.38934193807946305	0.6374958812269549	0.11795820127867657	0.8540572508615725	0.9456696194812839	0.07704982615562576	0.6159691051674387	0.8584998226220732	0.21549017057299422	0.49274484008905317	0.6664574680878732	0.3079092921897791	0.4451945895971131	0.6463302487244651	0.3008920757020028	0.42843713029732494	0.6010680325315259	0.2687628420307482	0.4118545186205581	0.6094819359142803	
360	6.101694915254237	0.3940620871908533	0.38973993454548367	0.9396824934617392	0.3815732976530123	-0.05954831813705591	0.9814295135045378	0.3897641271410457	-0.5064848232656409	1.0284318126130274	0.346718067442285	-0.5083503287167055	0.8222727087751504	0.4161200521310839	-0.5037683146181038	0.8361115860730133	0.3599456090985249	-0.5853907686037393	1.1262847639402183	0.17312386904503102	0.37932242281478434	0.9527528788376529	0.18974039162064385	-0.07101468133443212	1.0133410752097118	0.19898666568572507	-0.49857773489196416	1.0296140459456626	0.20172001452561342	-0.5019170017434024	0.8454309463282508	0.1410022181415828	-0.5135895303985598	0.88233288402561	0.2067593684587004	-0.5801681660882257	1.0905901870527643	0.2756921496400641	0.9398265063590271	0.9550703933770972	0.258151046437849	1.1858854856727736	0.9493809686529903	0.25925715676246713	1.0646697335939257	0.8489746467019196	0.4294516903390112	0.8618542463862071	0.9269352775491877	0.46479017107684806	0.6107865222962612	0.8204373826419822	0.3154156076489282	0.47026600492360393	0.6942026217339011	0.23971330910684346	0.38722795371335006	0.6874206149307229	0.23231835699343978	0.3718155483085733	0.6895405157173427	0.24373058501366224	0.39554050801493146	0.6438755439887828	0.11792044776296157	0.8540920415366327	0.9452470390102257	0.08103799440994944	0.6118751575688525	0.8681897963189635	0.2220847701846682	0.48934156302301307	0.6789110488064888	0.3080898935971567	0.4368860700839038	0.6594191404064085	0.2992115060367857	0.41978273088077744	0.6173520050488064	0.2737878289691539	0.40985410858931437	0.6219916043205831	
361	6.11864406779661	0.39421660772484435	0.38967414510543014	0.9377294340297232	0.38090750613468294	-0.058911017750604366	0.9795948474215874	0.3891061905227122	-0.5058675536699706	1.027111944217572	0.34664749478326584	-0.5078665750727092	0.8217548914241767	0.4145609976563723	-0.5038360383327969	0.8363033075011383	0.3592159780653553	-0.5854770989263501	1.1260136541369283	0.17291853185678166	0.3781275483429673	0.9519885759277222	0.1894617113437888	-0.07087163219791137	1.0124255568529321	0.19896029766595247	-0.49851354104826545	1.0295408631510925	0.20204726264481265	-0.5048945040753683	0.8500631530478236	0.141607067125672	-0.5154208726087915	0.8851394627008649	0.20670861894537584	-0.5804475332758747	1.0906458727927812	0.2756944522807532	0.9398972689522518	0.9550995014186289	0.2597480865187402	1.1863885053293783	0.9492730182823867	0.25965725410500545	1.0650040742895948	0.8488608862511424	0.4303600222498594	0.861857526162326	0.9270659191662618	0.4647661525292191	0.6112249779005499	0.8202918249017783	0.31412818800595305	0.47082305593576956	0.7050205498525617	0.23461667665605873	0.3808706058759408	0.7072722414560308	0.22670604068454803	0.36950524236513	0.7056761927403341	0.2396111635720573	0.3967845718661705	0.6528431869722902	0.11763444202687683	0.8544184317325172	0.9447633955392637	0.0842917604597257	0.6091419274138884	0.8760187345740021	0.22529278060867003	0.4867922241005763	0.6882235746511258	0.30269748619848336	0.43030569976488287	0.6668008245110189	0.29284647547091963	0.4127505903326728	0.6284925544378974	0.2760541513237944	0.40913093358538954	0.6315171430902529	
362	6.135593220338983	0.39429629022509516	0.389821087372218	0.9354236148354618	0.38044527008620793	-0.05819517658649709	0.9775557868417359	0.38862941360741626	-0.5053471197301105	1.0259857603318765	0.3467339401554597	-0.5076631597090921	0.8215994728707277	0.4131693618814764	-0.5037436939832768	0.8363151317937765	0.3586234701353239	-0.5854784157954203	1.125743929105852	0.17271143280193724	0.37691515929730046	0.9519822423114725	0.18911128381128706	-0.07086264749258364	1.0119897691008315	0.19891965446496523	-0.4982988042033322	1.0294044011541146	0.20236442061198645	-0.5067186550553086	0.852862427790583	0.14207132959270075	-0.5167517442484953	0.887188697180176	0.20667357500938593	-0.5804501695673836	1.0906019044689268	0.2756890770709495	0.9400085512417792	0.9551123607701728	0.2609720254624165	1.1867909434985284	0.9494584382524215	0.25980311311342197	1.065422409850952	0.8489794520871431	0.43119448156419515	0.8618683495222601	0.9271738915584005	0.46495753892812114	0.6113716414271361	0.8205114761969701	0.3141203287711986	0.4696532312776195	0.7111516393429121	0.2292648276604303	0.37525771039055045	0.7222213093125425	0.22227603885456107	0.3669883761912591	0.7164068318654453	0.23643937490859246	0.3941975694259384	0.6629175011134147	0.11694057563732435	0.8547879868886281	0.9447021323810558	0.0866898634531104	0.6076153966470844	0.8811785652091919	0.22513878941987037	0.4851166841173885	0.6937725384831677	0.29326027471519156	0.4263713014146953	0.6683243650767761	0.28395542008211927	0.40783337299324485	0.6345097984048997	0.2762146267533051	0.40849022735093565	0.6400735570367877	
363	6.152542372881356	0.39453038706199306	0.39006702129917786	0.9329734454486354	0.3802391189227929	-0.057659350737205184	0.9758554916138191	0.38833030495658727	-0.5049302703612797	1.0251063738285227	0.34680166144394603	-0.5077372095665759	0.8218689229540427	0.4121999003880822	-0.5035648966455002	0.8361580197127267	0.3581712192240894	-0.5854262677787458	1.1255342658682934	0.17262483138647589	0.3755541162186565	0.9527407195818333	0.18867140757450374	-0.07095049727693808	1.01193123496825	0.19886592562399777	-0.49798195823902985	1.0292300010366762	0.20255284311552202	-0.5073534762792358	0.8537382537355378	0.14233837239691413	-0.5174224842726164	0.8882367603834295	0.2066072426529238	-0.5801597213896357	1.0903881201907348	0.2756817291019983	0.9400895719202118	0.9551275175266514	0.2619320899426158	1.1870833112845718	0.9497561504546981	0.2597825306147623	1.0657111987158607	0.849519836750984	0.4318350409382915	0.861882626013898	0.927246531537757	0.4653733330001722	0.6112076347013036	0.8214426922342191	0.314534850628207	0.46717678321029577	0.7136816551640186	0.22410895523024976	0.37241672673548093	0.7303239741472471	0.21857396801936207	0.3656543954979786	0.7210451378868874	0.23348647955993912	0.3897514444317429	0.6725130158866686	0.11582006293310074	0.8547327954173787	0.9454366634090663	0.08826567255486231	0.6068907402381563	0.883908666834262	0.22262420244239928	0.484037726532709	0.6961851083384594	0.2824220116830586	0.42524869865718884	0.6644608118429225	0.2750562386194419	0.40519704988024663	0.6363341921592275	0.2746757089498162	0.40681469589895625	0.6495763858653036	
